<svg width="136" height="52" viewBox="0 0 136 52" fill="none" xmlns="http://www.w3.org/2000/svg">
<g clip-path="url(#clip0_4948_264965)">
<path d="M17.3353 36.6881C15.2804 42.1759 14.2438 49.7674 10.4511 50.8832C10.3901 50.9442 11.8109 51.5479 13.5731 51.5479C15.8109 51.5479 18.5975 50.5662 19.5792 46.2247V46.2186C19.6462 46.2186 20.0426 49.1393 18.9938 51.0784C24.1706 50.3223 24.3901 44.0052 24.3901 44.0052C24.3901 44.0052 25.9389 46.4259 25.0548 48.4259C29.9755 45.932 28.6523 39.6698 28.6523 39.6698C28.6523 39.6698 29.1889 39.9869 29.8718 42.4198C33.1401 41.5357 22.9084 21.9137 40.1096 16.0723C31.7926 16.8101 17.5182 19.621 17.3353 36.682" fill="url(#paint0_linear_4948_264965)"/>
<path d="M19.9512 0.0849472C17.5854 0.481289 16.1403 2.31056 16.1464 4.82885C16.1586 10.6337 16.183 9.05446 16.1952 14.8593C16.1952 15.1459 16.1952 15.4325 16.1952 15.7862C15.7927 15.7862 15.4939 15.7862 15.2012 15.7862C9.92686 15.8045 10.1891 15.8167 4.90856 15.8349C2.50613 15.8471 0.853686 17.1276 0.256125 19.4203C-0.170705 21.6398 -0.0182657 25.2435 0.26832 26.5118C0.951247 28.9386 2.39027 30.0362 4.90856 30.024C10.2012 30.0057 9.96344 29.9935 15.2622 29.9752C25.2744 29.9813 30.3476 25.5057 30.4086 15.7313C30.4695 5.963 30.372 10.4386 30.3476 4.61544C30.3476 1.92031 28.3964 -0.00041863 25.7013 0.0117765C25.2622 0.0117765 24.6891 0.0117765 24.0671 0.0117765C23.6098 0.0117765 23.1159 0.0117765 22.6403 0.0117765C21.5366 0.0117765 20.4878 0.0300692 19.9512 0.0971423" fill="url(#paint1_linear_4948_264965)"/>
<path d="M47.555 5.79297C43.2806 11.61 37.6647 14.7015 29.8659 14.6283C12.872 16.1466 15.2806 34.0369 15.2806 43.1588C22.1708 23.7747 40.4513 29.8844 41.305 27.2991C38.8172 26.7381 38.7562 25.7442 38.7562 25.7442C38.7562 25.7442 45.122 27.4393 47.1708 21.8844C45.2501 23.0003 42.7013 21.5003 42.7013 21.5003C42.7013 21.5003 48.9818 20.7747 49.2745 15.0735C47.3903 16.4027 43.9391 15.8052 44.0915 15.7381C51.5854 13.2564 47.7562 5.79297 47.555 5.79297Z" fill="url(#paint2_linear_4948_264965)"/>
<path d="M66.4211 13.8828C67.2748 15.5657 68.0797 17.2609 68.8785 18.9621C69.6772 20.6633 70.4333 22.3706 71.2138 24.0779C71.9577 25.7914 72.7199 27.5048 73.4455 29.2243L74.5248 31.8096C74.8663 32.6755 75.226 33.5353 75.5553 34.4072C75.1224 33.5657 74.7199 32.7182 74.2992 31.8767L73.0919 29.3279C72.2931 27.6267 71.537 25.9194 70.7565 24.2121C70.0126 22.4987 69.2504 20.7853 68.5248 19.0657C67.7992 17.3462 67.0797 15.6206 66.415 13.8828" fill="#76B143"/>
<path d="M63.5372 42.4559H59.9518L58.2506 46.6083H56.5433C56.5433 46.6083 63.2872 31.3583 63.3481 31.2486C63.5433 30.8827 63.8237 30.6388 64.275 30.651C64.7201 30.6632 64.9884 30.9254 65.1652 31.3034C65.4945 32.023 72.0067 46.6083 72.0067 46.6083H70.5494C70.5494 46.6083 64.3237 32.6205 64.2323 32.5291C64.1591 32.6205 60.5067 41.1876 60.5067 41.1876H63.5372V42.4559Z" fill="#1F3755"/>
<path d="M58.6835 30.6754L57.9823 32.1632H48.7323L48.7689 37.9742H55.403L54.8115 39.2303H48.6957L48.7689 46.6144H47.3176C47.3176 46.6144 47.3176 36.6266 47.3176 31.8583C47.3176 31.0169 47.6957 30.6815 48.5311 30.6815H58.6835V30.6754Z" fill="#1F3755"/>
<path d="M34.5859 30.6754H36.1286V45.2242H44.5006V46.6083H35.7872C34.9213 46.6083 34.5859 46.2364 34.5859 45.3827V30.6754Z" fill="#1F3755"/>
<path d="M34.8603 51.9925C34.7262 51.9925 34.6591 51.9254 34.6591 51.7852V48.9132C34.6591 48.773 34.7262 48.7059 34.8664 48.7059H36.5433C36.653 48.7059 36.7018 48.7608 36.7018 48.8644C36.7018 48.9681 36.6469 49.023 36.5433 49.023H35.0372V50.1571H36.4457C36.5554 50.1571 36.6103 50.212 36.6103 50.3156C36.6103 50.4193 36.5554 50.4742 36.4457 50.4742H35.0372V51.7791C35.0372 51.9193 34.9762 51.9864 34.8603 51.9864" fill="#668D3C"/>
<path d="M37.3786 51.9925C37.2506 51.9925 37.1896 51.9254 37.1896 51.7913V48.8705C37.1896 48.7364 37.2506 48.6693 37.3786 48.6693C37.5067 48.6693 37.5676 48.7364 37.5676 48.8705V51.7913C37.5676 51.9254 37.5067 51.9925 37.3786 51.9925Z" fill="#668D3C"/>
<path d="M38.5615 51.9925C38.4335 51.9925 38.3725 51.9254 38.3725 51.7913V48.8949C38.3725 48.7669 38.4335 48.6998 38.5676 48.6998H39.6591C40.0128 48.6998 40.2811 48.7852 40.464 48.9437C40.6469 49.1022 40.7445 49.34 40.7445 49.6388C40.7445 49.8766 40.6774 50.0778 40.5494 50.2303C40.4213 50.3827 40.2323 50.4864 39.9945 50.5291C40.1347 50.5778 40.2567 50.6998 40.3603 50.8888L40.8054 51.7181C40.842 51.7852 40.8481 51.8461 40.8237 51.901C40.7993 51.9559 40.7506 51.9864 40.6774 51.9864C40.6225 51.9864 40.5798 51.9742 40.5494 51.9498C40.5189 51.9254 40.4884 51.8888 40.464 51.84L39.9579 50.9071C39.8847 50.773 39.8054 50.6876 39.714 50.6449C39.6225 50.6022 39.5006 50.5778 39.3481 50.5778H38.7567V51.7852C38.7567 51.9193 38.6957 51.9864 38.5676 51.9864M38.7506 50.2852H39.6042C40.1164 50.2852 40.3725 50.0717 40.3725 49.6449C40.3725 49.2181 40.1164 49.0169 39.6042 49.0169H38.7506V50.2852Z" fill="#668D3C"/>
<path d="M42.5189 51.9986C42.2994 51.9986 42.0859 51.9742 41.8908 51.9193C41.6957 51.8644 41.525 51.7852 41.3847 51.6815C41.3359 51.6449 41.3055 51.6083 41.2994 51.5595C41.2872 51.5108 41.2994 51.4681 41.3176 51.4315C41.3359 51.3888 41.3664 51.3644 41.4091 51.3522C41.4518 51.34 41.4945 51.3522 41.5494 51.3827C41.6896 51.4864 41.8359 51.5595 41.9945 51.6022C42.153 51.6449 42.3298 51.6693 42.525 51.6693C42.7994 51.6693 43.0067 51.6205 43.1408 51.5169C43.275 51.4132 43.342 51.2791 43.342 51.1083C43.342 50.9742 43.2933 50.8644 43.1957 50.7852C43.0981 50.7059 42.9335 50.6388 42.7079 50.5961L42.2262 50.4986C41.9396 50.4376 41.7201 50.3339 41.5798 50.1937C41.4335 50.0535 41.3664 49.8644 41.3664 49.6327C41.3664 49.4376 41.4152 49.2669 41.5189 49.1266C41.6225 48.9864 41.7567 48.8705 41.9396 48.7913C42.1164 48.712 42.3237 48.6693 42.5555 48.6693C42.7506 48.6693 42.9335 48.6937 43.0981 48.7486C43.2689 48.8034 43.4152 48.8827 43.5555 48.9925C43.5981 49.0291 43.6225 49.0656 43.6286 49.1083C43.6347 49.151 43.6286 49.1937 43.6042 49.2303C43.5798 49.2669 43.5494 49.2913 43.5128 49.3035C43.4701 49.3156 43.4274 49.3035 43.3664 49.2669C43.2445 49.1693 43.1164 49.1022 42.9823 49.0656C42.8481 49.023 42.7018 49.0047 42.5433 49.0047C42.2994 49.0047 42.1042 49.0595 41.9579 49.1754C41.8115 49.2852 41.7384 49.4376 41.7384 49.6205C41.7384 49.7669 41.7811 49.8827 41.8725 49.9742C41.964 50.0595 42.1103 50.1266 42.3176 50.1632L42.7994 50.2669C43.1103 50.3339 43.342 50.4315 43.4884 50.5595C43.6408 50.6876 43.714 50.8705 43.714 51.0961C43.714 51.2791 43.6652 51.4376 43.5676 51.5778C43.4701 51.7181 43.3298 51.8217 43.153 51.901C42.9762 51.9803 42.7628 52.0169 42.5128 52.0169" fill="#668D3C"/>
<path d="M45.2262 51.9925C45.0981 51.9925 45.0372 51.9254 45.0372 51.7913V49.0291H43.9945C43.8786 49.0291 43.8176 48.9742 43.8176 48.8644C43.8176 48.7547 43.8786 48.6998 43.9945 48.6998H46.4579C46.5737 48.6998 46.6347 48.7547 46.6347 48.8644C46.6347 48.9742 46.5737 49.0291 46.4579 49.0291H45.4213V51.7913C45.4213 51.9254 45.3542 51.9925 45.2262 51.9925Z" fill="#668D3C"/>
<path d="M48.3969 51.9925C48.2689 51.9925 48.2079 51.9254 48.2079 51.7913V48.8949C48.2079 48.7669 48.2689 48.6998 48.403 48.6998H49.4945C49.8481 48.6998 50.1164 48.7852 50.2994 48.9437C50.4823 49.1022 50.5798 49.34 50.5798 49.6388C50.5798 49.8766 50.5128 50.0778 50.3847 50.2303C50.2506 50.3827 50.0676 50.4864 49.8298 50.5291C49.9701 50.5778 50.092 50.6998 50.1957 50.8888L50.6408 51.7181C50.6774 51.7852 50.6835 51.8461 50.6591 51.901C50.6347 51.9559 50.5859 51.9864 50.5128 51.9864C50.4579 51.9864 50.4152 51.9742 50.3847 51.9498C50.3542 51.9254 50.3237 51.8888 50.2994 51.84L49.7933 50.9071C49.7201 50.773 49.6408 50.6876 49.5494 50.6449C49.4579 50.6022 49.3359 50.5778 49.1835 50.5778H48.592V51.7852C48.592 51.9193 48.5311 51.9864 48.403 51.9864M48.5859 50.2852H49.4396C49.9518 50.2852 50.2079 50.0717 50.2079 49.6449C50.2079 49.2181 49.9518 49.0169 49.4396 49.0169H48.5859V50.2852Z" fill="#668D3C"/>
<path d="M51.5067 51.962C51.3664 51.962 51.2994 51.8949 51.2994 51.7547V48.9132C51.2994 48.773 51.3664 48.7059 51.5067 48.7059H53.2262C53.3359 48.7059 53.3847 48.7608 53.3847 48.8644C53.3847 48.9681 53.3298 49.023 53.2262 49.023H51.6713V50.151H53.1286C53.2384 50.151 53.2872 50.2059 53.2872 50.3095C53.2872 50.4132 53.2323 50.4742 53.1286 50.4742H51.6713V51.6449H53.2262C53.3359 51.6449 53.3847 51.6998 53.3847 51.8034C53.3847 51.9071 53.3298 51.962 53.2262 51.962H51.5067Z" fill="#668D3C"/>
<path d="M54.9945 51.9986C54.775 51.9986 54.5616 51.9742 54.3664 51.9193C54.1713 51.8644 54.0006 51.7852 53.8603 51.6815C53.8115 51.6449 53.7811 51.6083 53.775 51.5595C53.7628 51.5108 53.775 51.4681 53.7933 51.4315C53.8115 51.3888 53.842 51.3644 53.8847 51.3522C53.9274 51.34 53.9701 51.3522 54.025 51.3827C54.1652 51.4864 54.3115 51.5595 54.4701 51.6022C54.6286 51.6449 54.8054 51.6693 55.0006 51.6693C55.275 51.6693 55.4823 51.6205 55.6164 51.5169C55.7506 51.4132 55.8176 51.2791 55.8176 51.1083C55.8176 50.9742 55.7689 50.8644 55.6713 50.7852C55.5737 50.7059 55.4091 50.6388 55.1835 50.5961L54.7018 50.4986C54.4091 50.4376 54.1957 50.3339 54.0555 50.1937C53.9091 50.0535 53.842 49.8644 53.842 49.6327C53.842 49.4376 53.8908 49.2669 53.9945 49.1266C54.092 48.9803 54.2323 48.8705 54.4152 48.7913C54.592 48.712 54.7994 48.6693 55.0372 48.6693C55.2323 48.6693 55.4091 48.6937 55.5798 48.7486C55.7445 48.8034 55.8969 48.8827 56.0372 48.9925C56.0798 49.0291 56.1042 49.0656 56.1103 49.1083C56.1164 49.151 56.1103 49.1937 56.092 49.2303C56.0737 49.2669 56.0372 49.2913 56.0006 49.3035C55.964 49.3156 55.9152 49.3035 55.8542 49.2669C55.7323 49.1693 55.6042 49.1022 55.4701 49.0656C55.3359 49.023 55.1896 49.0047 55.0311 49.0047C54.7872 49.0047 54.592 49.0595 54.4518 49.1754C54.3055 49.2852 54.2323 49.4376 54.2323 49.6205C54.2323 49.7669 54.275 49.8827 54.3664 49.9742C54.4579 50.0595 54.6042 50.1266 54.8115 50.1632L55.2933 50.2669C55.6042 50.3339 55.8359 50.4315 55.9823 50.5595C56.1347 50.6876 56.2079 50.8705 56.2079 51.0961C56.2079 51.2791 56.1591 51.4376 56.0616 51.5778C55.964 51.7181 55.8237 51.8217 55.6469 51.901C55.4701 51.9803 55.2567 52.0169 55.0067 52.0169" fill="#668D3C"/>
<path d="M56.9701 51.9925C56.842 51.9925 56.7811 51.9254 56.7811 51.7913V48.8949C56.7811 48.7669 56.8481 48.6998 56.9762 48.6998H58.0676C58.4213 48.6998 58.6896 48.7852 58.8725 48.9559C59.0555 49.1266 59.153 49.3644 59.153 49.6815C59.153 49.9986 59.0616 50.2364 58.8725 50.4071C58.6835 50.5778 58.4152 50.6632 58.0676 50.6632H57.1591V51.7973C57.1591 51.9315 57.0981 51.9986 56.9701 51.9986M57.1591 50.34H58.025C58.5311 50.34 58.7811 50.1205 58.7811 49.6815C58.7811 49.2425 58.5311 49.0169 58.025 49.0169H57.1591V50.34Z" fill="#668D3C"/>
<path d="M61.0372 51.9986C60.7323 51.9986 60.4701 51.9315 60.2506 51.7913C60.025 51.6571 59.8542 51.462 59.7323 51.212C59.6103 50.962 59.5494 50.6632 59.5494 50.3217C59.5494 49.9803 59.6103 49.6876 59.7323 49.4376C59.8542 49.1876 60.025 48.9986 60.2445 48.8583C60.4701 48.7242 60.7323 48.6571 61.0372 48.6571C61.342 48.6571 61.6103 48.7242 61.8359 48.8583C62.0616 48.9925 62.2323 49.1876 62.3542 49.4315C62.4762 49.6815 62.5372 49.9742 62.5372 50.3156C62.5372 50.6571 62.4762 50.9559 62.3542 51.2059C62.2323 51.4559 62.0555 51.651 61.8359 51.7913C61.6164 51.9315 61.3481 51.9986 61.0433 51.9986M61.0372 51.6632C61.3847 51.6632 61.653 51.5474 61.842 51.3095C62.0311 51.0717 62.1286 50.7486 62.1286 50.3278C62.1286 49.9071 62.0311 49.5778 61.842 49.3461C61.653 49.1144 61.3786 48.9986 61.0372 48.9986C60.6957 48.9986 60.4274 49.1144 60.2384 49.3461C60.0494 49.5778 59.9518 49.9071 59.9518 50.3278C59.9518 50.7486 60.0494 51.0717 60.2384 51.3095C60.4274 51.5474 60.6957 51.6632 61.0372 51.6632Z" fill="#668D3C"/>
<path d="M63.3908 51.9925C63.2689 51.9925 63.2079 51.9315 63.2079 51.8035V48.8644C63.2079 48.7364 63.2628 48.6693 63.3725 48.6693C63.4213 48.6693 63.4579 48.6754 63.4762 48.6937C63.5006 48.712 63.5311 48.7425 63.5615 48.7852L65.464 51.3217V48.8583C65.464 48.7364 65.525 48.6754 65.6408 48.6754C65.7567 48.6754 65.8115 48.7364 65.8115 48.8583V51.8095C65.8115 51.9315 65.7628 51.9925 65.6591 51.9925C65.6103 51.9925 65.5737 51.9803 65.5494 51.962C65.525 51.9437 65.4945 51.9132 65.464 51.8766L63.5615 49.3339V51.8035C63.5615 51.9315 63.5006 51.9925 63.3847 51.9925" fill="#668D3C"/>
<path d="M67.6835 51.9986C67.464 51.9986 67.2506 51.9742 67.0555 51.9193C66.8603 51.8644 66.6896 51.7852 66.5494 51.6815C66.5006 51.6449 66.4701 51.6083 66.464 51.5595C66.4518 51.5108 66.464 51.4681 66.4823 51.4315C66.5006 51.3888 66.5311 51.3644 66.5737 51.3522C66.6164 51.34 66.6591 51.3522 66.714 51.3827C66.8542 51.4864 67.0006 51.5595 67.1591 51.6022C67.3176 51.6449 67.4945 51.6693 67.6896 51.6693C67.964 51.6693 68.1713 51.6205 68.3055 51.5169C68.4396 51.4132 68.5067 51.2791 68.5067 51.1083C68.5067 50.9742 68.4579 50.8644 68.3603 50.7852C68.2628 50.7059 68.0981 50.6388 67.8725 50.5961L67.3908 50.4986C67.0981 50.4376 66.8847 50.3339 66.7445 50.1937C66.5981 50.0535 66.5311 49.8644 66.5311 49.6327C66.5311 49.4376 66.5798 49.2669 66.6774 49.1266C66.775 48.9803 66.9152 48.8705 67.0981 48.7913C67.275 48.712 67.4823 48.6693 67.714 48.6693C67.9091 48.6693 68.0859 48.6937 68.2567 48.7486C68.4213 48.8034 68.5737 48.8827 68.714 48.9925C68.7567 49.0291 68.7811 49.0656 68.7872 49.1083C68.7933 49.151 68.7872 49.1937 68.7689 49.2303C68.7445 49.2669 68.714 49.2913 68.6774 49.3035C68.6347 49.3156 68.592 49.3035 68.5311 49.2669C68.4091 49.1693 68.2811 49.1022 68.1469 49.0656C68.0128 49.023 67.8664 49.0047 67.7079 49.0047C67.464 49.0047 67.2689 49.0595 67.1286 49.1754C66.9823 49.2852 66.9091 49.4376 66.9091 49.6205C66.9091 49.7669 66.9518 49.8827 67.0433 49.9742C67.1347 50.0595 67.2811 50.1266 67.4884 50.1632L67.9701 50.2669C68.2811 50.3339 68.5128 50.4315 68.6591 50.5595C68.8116 50.6876 68.8847 50.8705 68.8847 51.0961C68.8847 51.2791 68.8359 51.4376 68.7384 51.5778C68.6408 51.7181 68.5006 51.8217 68.3237 51.901C68.1469 51.9803 67.9335 52.0169 67.6835 52.0169" fill="#668D3C"/>
<path d="M69.6774 51.962C69.5372 51.962 69.4701 51.8949 69.4701 51.7547V48.9132C69.4701 48.773 69.5372 48.7059 69.6774 48.7059H71.3969C71.5067 48.7059 71.5555 48.7608 71.5555 48.8644C71.5555 48.9681 71.5006 49.023 71.3969 49.023H69.842V50.151H71.2994C71.4091 50.151 71.4579 50.2059 71.4579 50.3095C71.4579 50.4132 71.403 50.4742 71.2994 50.4742H69.842V51.6449H71.3969C71.5067 51.6449 71.5555 51.6998 71.5555 51.8034C71.5555 51.9071 71.5006 51.962 71.3969 51.962H69.6774Z" fill="#668D3C"/>
<path d="M77.7933 14.9925H78.1469L77.1652 19.6083H79.9579L79.8847 19.9315H76.7445L77.7933 14.9925Z" fill="#668D3C"/>
<path d="M82.1286 16.3217H82.4762L81.7079 19.9315H81.3603L82.1286 16.3217ZM82.4396 14.8583H82.7872L82.653 15.4986H82.3055L82.4396 14.8583Z" fill="#668D3C"/>
<path d="M84.464 16.5961H83.9823L84.0433 16.3095H84.5311L84.5494 16.1937C84.6103 15.8949 84.7018 15.6449 84.8237 15.4315C84.9457 15.2181 85.092 15.0595 85.2628 14.9498C85.4335 14.84 85.6225 14.7852 85.8237 14.7852C85.9518 14.7852 86.0737 14.8034 86.1896 14.8461C86.3055 14.8888 86.3969 14.9437 86.464 15.0108L86.2811 15.2608C86.2323 15.2059 86.1713 15.1632 86.0798 15.1327C85.9945 15.1022 85.903 15.09 85.8115 15.09C85.5859 15.09 85.3969 15.1815 85.2384 15.3705C85.0798 15.5595 84.9579 15.8339 84.8847 16.1876L84.8664 16.3156H85.8298L85.7689 16.6022H84.7933L83.7811 21.4193H83.4335L84.4518 16.6022L84.464 16.5961Z" fill="#668D3C"/>
<path d="M88.1591 19.9986C87.8725 19.9986 87.6225 19.9315 87.4152 19.7913C87.2079 19.651 87.0494 19.4681 86.9396 19.2364C86.8298 19.0047 86.7689 18.7547 86.7628 18.4742C86.7628 18.1937 86.8055 17.9193 86.903 17.6571C87.0006 17.3949 87.1469 17.1571 87.3359 16.9498C87.525 16.7364 87.7445 16.5717 87.9945 16.4498C88.2506 16.3278 88.525 16.2669 88.8237 16.2669C89.0433 16.2669 89.2384 16.3034 89.4152 16.3766C89.592 16.4498 89.7384 16.5595 89.842 16.6998C89.9457 16.8461 90.0006 17.023 90.0067 17.2486C90.0067 17.6144 89.8603 17.8766 89.5494 18.0352C89.2384 18.1937 88.7689 18.273 88.1286 18.273C87.9701 18.273 87.7994 18.273 87.6164 18.2608C87.4335 18.2547 87.2201 18.2425 86.9884 18.2242L87.0494 17.9681C87.2872 17.9803 87.4884 17.9925 87.6591 17.9986C87.8298 18.0047 87.9945 18.0108 88.1469 18.0108C88.5372 18.0108 88.842 17.9803 89.0676 17.9254C89.2872 17.8644 89.4457 17.7791 89.5433 17.6693C89.6408 17.5534 89.6835 17.4193 89.6774 17.2547C89.6774 17.09 89.6347 16.9559 89.5494 16.8522C89.464 16.7486 89.3542 16.6754 89.2201 16.6266C89.0859 16.5778 88.9396 16.5534 88.7872 16.5534C88.5433 16.5534 88.3176 16.6083 88.1103 16.7181C87.903 16.8278 87.7262 16.9742 87.5737 17.1571C87.4213 17.34 87.3116 17.5413 87.2262 17.7608C87.1469 17.9803 87.1103 18.2059 87.1103 18.4315C87.1103 18.6754 87.1591 18.8888 87.2445 19.0839C87.3298 19.2791 87.4518 19.4376 87.6164 19.5534C87.7811 19.6693 87.9762 19.7242 88.214 19.7242C88.4823 19.7242 88.7262 19.6571 88.9457 19.5291C89.1652 19.3949 89.3359 19.2181 89.4518 18.9986L89.7506 19.09C89.6469 19.273 89.5189 19.4315 89.3542 19.5717C89.1896 19.712 89.0067 19.8156 88.8055 19.8949C88.6042 19.9681 88.3786 20.0108 88.1469 20.0108" fill="#668D3C"/>
<path d="M94.9762 14.9925H95.3298L94.8481 17.2425H97.7872L98.2628 14.9925H98.6225L97.5676 19.9315H97.214L97.7201 17.5656H94.7811L94.2811 19.9315H93.9213L94.9762 14.9925Z" fill="#668D3C"/>
<path d="M100.982 19.9986C100.72 19.9986 100.488 19.9315 100.299 19.7852C100.104 19.6449 99.9579 19.4559 99.8542 19.2303C99.7506 18.9986 99.6957 18.7486 99.6957 18.4803C99.6957 18.1998 99.7506 17.9254 99.8603 17.6632C99.9701 17.401 100.123 17.1632 100.305 16.9498C100.494 16.7364 100.708 16.5717 100.952 16.4498C101.19 16.3278 101.446 16.2608 101.708 16.2608C102.007 16.2608 102.257 16.3461 102.452 16.5108C102.647 16.6754 102.787 16.8766 102.866 17.1083L103.031 16.3217H103.385L102.714 19.4254L102.702 19.4681V19.5108C102.702 19.5778 102.738 19.6144 102.818 19.6144L102.751 19.9254H102.671L102.61 19.9315C102.525 19.9315 102.464 19.901 102.421 19.8583C102.379 19.8156 102.36 19.7547 102.36 19.6937V19.6205C102.36 19.6205 102.379 19.5474 102.391 19.4864C102.403 19.4254 102.421 19.3339 102.446 19.2181C102.263 19.4559 102.031 19.651 101.769 19.7913C101.501 19.9376 101.238 20.0047 100.97 20.0047M101.11 19.6876C101.238 19.6876 101.379 19.6632 101.525 19.6144C101.671 19.5656 101.812 19.4925 101.952 19.401C102.086 19.3095 102.208 19.2059 102.312 19.09C102.415 18.9742 102.488 18.8461 102.537 18.7181L102.787 17.5352C102.763 17.3644 102.702 17.2059 102.604 17.0656C102.507 16.9254 102.385 16.8034 102.232 16.7181C102.08 16.6266 101.915 16.5839 101.726 16.5839C101.507 16.5839 101.299 16.6388 101.098 16.7486C100.897 16.8583 100.72 17.0047 100.562 17.1876C100.403 17.3705 100.281 17.5656 100.196 17.7852C100.104 18.0047 100.062 18.2242 100.062 18.4437C100.062 18.6632 100.11 18.8766 100.196 19.0656C100.287 19.2547 100.409 19.401 100.568 19.5169C100.726 19.6327 100.909 19.6876 101.11 19.6876Z" fill="#668D3C"/>
<path d="M105.342 16.3217H105.653L105.501 17.0474C105.69 16.8156 105.915 16.6266 106.184 16.4803C106.446 16.3339 106.708 16.2608 106.97 16.2608C107.244 16.2608 107.476 16.3339 107.665 16.4742C107.854 16.6205 108.001 16.8034 108.104 17.0352C108.208 17.2669 108.257 17.5169 108.257 17.7852C108.257 18.0534 108.202 18.3339 108.098 18.6022C107.994 18.8644 107.848 19.1022 107.659 19.3095C107.476 19.5169 107.257 19.6815 107.019 19.8095C106.775 19.9376 106.513 19.9986 106.244 19.9986C105.952 19.9986 105.708 19.9193 105.513 19.7547C105.318 19.59 105.177 19.3888 105.086 19.1571L104.604 21.4132H104.257L105.342 16.3217ZM106.226 19.6876C106.452 19.6876 106.665 19.6327 106.873 19.523C107.074 19.4132 107.251 19.273 107.403 19.0961C107.555 18.9193 107.677 18.7181 107.763 18.4986C107.848 18.2791 107.897 18.0595 107.897 17.84C107.897 17.6205 107.854 17.4071 107.769 17.212C107.684 17.023 107.562 16.8644 107.403 16.7486C107.244 16.6327 107.055 16.5778 106.836 16.5778C106.72 16.5778 106.592 16.6022 106.446 16.651C106.299 16.6998 106.159 16.773 106.019 16.8644C105.879 16.9559 105.757 17.0595 105.653 17.1815C105.549 17.2974 105.476 17.4193 105.434 17.5474L105.177 18.7303C105.214 18.9071 105.281 19.0656 105.379 19.212C105.476 19.3583 105.598 19.4742 105.744 19.5595C105.891 19.6449 106.055 19.6876 106.232 19.6876" fill="#668D3C"/>
<path d="M110.287 16.3217H110.598L110.446 17.0474C110.635 16.8156 110.86 16.6266 111.129 16.4803C111.391 16.3339 111.653 16.2608 111.915 16.2608C112.19 16.2608 112.421 16.3339 112.61 16.4742C112.799 16.6205 112.946 16.8034 113.049 17.0352C113.153 17.2669 113.202 17.5169 113.202 17.7852C113.202 18.0534 113.147 18.3339 113.043 18.6022C112.94 18.8644 112.793 19.1022 112.604 19.3095C112.421 19.5169 112.202 19.6815 111.964 19.8095C111.72 19.9376 111.458 19.9986 111.19 19.9986C110.897 19.9986 110.653 19.9193 110.458 19.7547C110.263 19.59 110.123 19.3888 110.031 19.1571L109.549 21.4132H109.202L110.287 16.3217ZM111.171 19.6876C111.397 19.6876 111.61 19.6327 111.818 19.523C112.019 19.4132 112.196 19.273 112.348 19.0961C112.501 18.9193 112.623 18.7181 112.708 18.4986C112.793 18.2791 112.842 18.0595 112.842 17.84C112.842 17.6205 112.799 17.4071 112.714 17.212C112.629 17.023 112.507 16.8644 112.348 16.7486C112.19 16.6327 112.001 16.5778 111.781 16.5778C111.665 16.5778 111.537 16.6022 111.391 16.651C111.244 16.6998 111.104 16.773 110.964 16.8644C110.824 16.9559 110.702 17.0595 110.598 17.1815C110.494 17.2974 110.421 17.4193 110.379 17.5474L110.123 18.7303C110.159 18.9071 110.226 19.0656 110.324 19.212C110.421 19.3583 110.543 19.4742 110.69 19.5595C110.836 19.6449 111.001 19.6876 111.177 19.6876" fill="#668D3C"/>
<path d="M115.97 19.9986C115.683 19.9986 115.433 19.9315 115.226 19.7913C115.019 19.651 114.86 19.4681 114.751 19.2364C114.641 19.0047 114.58 18.7547 114.574 18.4742C114.574 18.1937 114.616 17.9193 114.714 17.6571C114.812 17.3949 114.958 17.1571 115.147 16.9498C115.336 16.7364 115.555 16.5717 115.805 16.4498C116.062 16.3278 116.336 16.2669 116.635 16.2669C116.854 16.2669 117.049 16.3034 117.226 16.3766C117.403 16.4498 117.549 16.5595 117.653 16.6998C117.757 16.84 117.812 17.023 117.818 17.2486C117.818 17.6144 117.671 17.8766 117.36 18.0352C117.049 18.1937 116.58 18.273 115.94 18.273C115.781 18.273 115.61 18.273 115.427 18.2608C115.244 18.2547 115.031 18.2425 114.799 18.2242L114.86 17.9681C115.098 17.9803 115.299 17.9925 115.47 17.9986C115.641 18.0047 115.805 18.0108 115.958 18.0108C116.348 18.0108 116.653 17.9803 116.879 17.9254C117.098 17.8644 117.257 17.7791 117.354 17.6693C117.452 17.5534 117.494 17.4193 117.488 17.2547C117.488 17.09 117.446 16.9559 117.36 16.8522C117.275 16.7486 117.165 16.6754 117.031 16.6266C116.897 16.5778 116.751 16.5534 116.598 16.5534C116.354 16.5534 116.129 16.6083 115.921 16.7181C115.714 16.8278 115.537 16.9742 115.385 17.1571C115.232 17.34 115.123 17.5413 115.037 17.7608C114.958 17.9803 114.921 18.2059 114.921 18.4315C114.921 18.6754 114.97 18.8888 115.055 19.0839C115.141 19.2791 115.263 19.4376 115.427 19.5534C115.592 19.6693 115.787 19.7242 116.025 19.7242C116.293 19.7242 116.537 19.6571 116.757 19.5291C116.976 19.3949 117.147 19.2181 117.263 18.9986L117.562 19.09C117.458 19.273 117.324 19.4315 117.165 19.5717C117.001 19.712 116.818 19.8156 116.616 19.8949C116.415 19.9681 116.19 20.0108 115.958 20.0108" fill="#668D3C"/>
<path d="M119.787 16.3217H120.116L119.927 17.1876C120.062 17.0047 120.22 16.84 120.403 16.7059C120.586 16.5717 120.781 16.462 120.988 16.3827C121.196 16.3034 121.403 16.2669 121.604 16.2669C121.787 16.2669 121.94 16.2974 122.055 16.3644C122.171 16.4315 122.251 16.5291 122.305 16.6571C122.36 16.7852 122.385 16.9437 122.385 17.1266C122.385 17.2303 122.373 17.3461 122.36 17.4681C122.342 17.59 122.324 17.7181 122.293 17.8583L121.854 19.9315H121.507L121.934 17.9254C121.958 17.7974 121.982 17.6815 121.994 17.5717C122.007 17.4681 122.013 17.3705 122.013 17.2791C122.013 17.0413 121.964 16.8705 121.873 16.7547C121.775 16.6388 121.635 16.5839 121.44 16.5839C121.244 16.5839 121.049 16.6327 120.848 16.7303C120.647 16.8278 120.458 16.962 120.281 17.1266C120.11 17.2974 119.97 17.4864 119.86 17.6998L119.385 19.9315H119.037L119.799 16.3217H119.787Z" fill="#668D3C"/>
<path d="M124.818 19.9986C124.543 19.9986 124.293 19.9498 124.068 19.8583C123.842 19.7669 123.659 19.6266 123.519 19.4437L123.732 19.2059C123.885 19.3766 124.049 19.5047 124.232 19.59C124.415 19.6754 124.616 19.7181 124.842 19.7181C125.068 19.7181 125.269 19.6815 125.446 19.6144C125.623 19.5474 125.757 19.4437 125.86 19.3156C125.964 19.1876 126.013 19.0352 126.013 18.8644C126.013 18.6815 125.933 18.5474 125.769 18.4681C125.604 18.3888 125.373 18.3095 125.074 18.2242C124.86 18.1632 124.684 18.1083 124.537 18.0534C124.391 17.9986 124.281 17.9315 124.208 17.84C124.135 17.7547 124.098 17.6327 124.098 17.4803C124.098 17.2181 124.165 16.9925 124.305 16.8156C124.44 16.6388 124.623 16.4986 124.854 16.401C125.08 16.3095 125.33 16.2608 125.604 16.2608C125.879 16.2608 126.116 16.3095 126.299 16.401C126.488 16.4986 126.623 16.6205 126.702 16.7669L126.47 16.9559C126.391 16.8156 126.269 16.712 126.11 16.6449C125.946 16.5778 125.763 16.5413 125.562 16.5413C125.379 16.5413 125.196 16.5717 125.025 16.6327C124.854 16.6937 124.714 16.7852 124.61 16.9071C124.507 17.0352 124.452 17.1937 124.452 17.3827C124.452 17.5413 124.513 17.6571 124.635 17.7242C124.757 17.7913 124.952 17.8583 125.22 17.9315C125.458 17.9986 125.659 18.0595 125.83 18.1266C126.001 18.1937 126.135 18.2791 126.226 18.3766C126.318 18.4803 126.366 18.6144 126.366 18.7913C126.366 19.0291 126.299 19.2425 126.165 19.4193C126.031 19.6022 125.848 19.7364 125.616 19.8339C125.385 19.9315 125.11 19.9803 124.805 19.9803" fill="#668D3C"/>
<path d="M127.738 19.9315L127.873 19.34H128.171L128.043 19.9315H127.738Z" fill="#668D3C"/>
<path d="M85.7201 27.4803C85.9701 27.7669 86.092 28.1083 86.092 28.4986C86.092 28.9925 85.9213 29.3888 85.5859 29.6998C85.2506 30.0047 84.7628 30.1632 84.1164 30.1632H82.1591V23.9742H84.1103C84.7262 23.9742 85.1835 24.1144 85.4945 24.3949C85.7994 24.6754 85.9579 25.0474 85.9579 25.4986C85.9579 25.9071 85.8481 26.2364 85.6225 26.4803C85.3969 26.7242 85.1103 26.8827 84.7689 26.9437C85.1591 27.0108 85.4823 27.1937 85.7323 27.4803M82.5555 26.7974H84.092C84.5676 26.7974 84.9274 26.6876 85.1774 26.462C85.4274 26.2364 85.5494 25.9315 85.5494 25.5413C85.5494 25.151 85.4274 24.8705 85.1774 24.651C84.9274 24.4315 84.5554 24.3217 84.0494 24.3217H82.5555V26.7974ZM85.2628 29.4498C85.5494 29.212 85.6957 28.8827 85.6957 28.462C85.6957 28.0413 85.5494 27.7242 85.2567 27.4864C84.964 27.2425 84.5616 27.1205 84.0555 27.1205H82.5615V29.8095H84.0737C84.5798 29.8095 84.9823 29.6937 85.2689 29.4559" fill="#1F3755"/>
<path d="M90.5006 29.523C90.8298 29.2791 91.025 28.9498 91.0981 28.5291H91.5128C91.4274 29.0413 91.1835 29.4498 90.7994 29.7608C90.4091 30.0717 89.9152 30.2242 89.3116 30.2242C88.8603 30.2242 88.464 30.1266 88.1164 29.9315C87.7689 29.7364 87.4945 29.4559 87.2933 29.0839C87.092 28.7181 86.9945 28.2791 86.9945 27.773C86.9945 27.2669 87.092 26.84 87.2933 26.4742C87.4945 26.1083 87.7628 25.8217 88.1164 25.6266C88.464 25.4315 88.8664 25.3339 89.3116 25.3339C89.7567 25.3339 90.1713 25.4315 90.5128 25.6266C90.8481 25.8217 91.1042 26.0778 91.275 26.401C91.4457 26.7181 91.5311 27.0595 91.5311 27.4254C91.5311 27.5717 91.5189 27.7242 91.4884 27.8888H87.3908C87.3969 28.3339 87.4884 28.7059 87.6713 29.0108C87.8481 29.3095 88.0798 29.5352 88.3664 29.6754C88.6469 29.8217 88.964 29.8888 89.2994 29.8888C89.7811 29.8888 90.1835 29.7669 90.5128 29.523M88.3603 25.8766C88.0737 26.023 87.842 26.2486 87.6652 26.5474C87.4884 26.8461 87.3908 27.212 87.3847 27.651H91.1408C91.1652 27.212 91.092 26.84 90.9213 26.5413C90.7506 26.2425 90.525 26.0169 90.2384 25.8766C89.9518 25.7303 89.6408 25.6632 89.3055 25.6632C88.9701 25.6632 88.6469 25.7364 88.3603 25.8827" fill="#1F3755"/>
<path d="M95.5311 27.4742V30.1632H95.1347V23.9742H96.8359C97.5189 23.9742 98.0311 24.1266 98.3664 24.4376C98.7018 24.7486 98.8664 25.1815 98.8664 25.7364C98.8664 26.2913 98.6957 26.7364 98.3481 27.0291C98.0006 27.3278 97.5006 27.4742 96.8359 27.4742H95.525H95.5311ZM98.464 25.7364C98.464 25.273 98.3359 24.9254 98.0798 24.6815C97.8237 24.4437 97.403 24.3217 96.8176 24.3217H95.5372V27.1205H96.8176C97.9152 27.1205 98.4701 26.6571 98.4701 25.7364" fill="#1F3755"/>
<path d="M100.946 25.59C101.257 25.3949 101.653 25.2974 102.129 25.2974V25.7303H101.994C101.513 25.7303 101.11 25.8644 100.781 26.1327C100.452 26.401 100.287 26.84 100.287 27.4437V30.1632H99.8908V25.3949H100.287V26.4498C100.409 26.0778 100.629 25.7913 100.94 25.5961" fill="#1F3755"/>
<path d="M106.293 29.523C106.623 29.2791 106.818 28.9498 106.891 28.5291H107.305C107.22 29.0413 106.976 29.4498 106.592 29.7608C106.202 30.0717 105.708 30.2242 105.104 30.2242C104.653 30.2242 104.257 30.1266 103.909 29.9315C103.562 29.7364 103.287 29.4559 103.086 29.0839C102.885 28.7181 102.787 28.2791 102.787 27.773C102.787 27.2669 102.885 26.84 103.086 26.4742C103.287 26.1083 103.555 25.8217 103.909 25.6266C104.257 25.4315 104.659 25.3339 105.104 25.3339C105.549 25.3339 105.964 25.4315 106.305 25.6266C106.641 25.8217 106.897 26.0778 107.068 26.401C107.238 26.7181 107.33 27.0595 107.33 27.4254C107.33 27.5717 107.318 27.7242 107.287 27.8888H103.19C103.196 28.3339 103.287 28.7059 103.464 29.0108C103.641 29.3095 103.873 29.5352 104.159 29.6754C104.44 29.8217 104.757 29.8888 105.092 29.8888C105.574 29.8888 105.976 29.7669 106.305 29.523M104.153 25.8766C103.866 26.023 103.635 26.2486 103.452 26.5474C103.275 26.8461 103.184 27.212 103.177 27.651H106.933C106.958 27.212 106.885 26.84 106.714 26.5413C106.543 26.2425 106.318 26.0169 106.031 25.8766C105.744 25.7303 105.434 25.6632 105.098 25.6632C104.763 25.6632 104.44 25.7364 104.153 25.8827" fill="#1F3755"/>
<path d="M112.129 25.6266C112.47 25.8217 112.738 26.1083 112.934 26.4742C113.129 26.8461 113.226 27.2791 113.226 27.773C113.226 28.2669 113.129 28.7059 112.934 29.0778C112.738 29.4498 112.47 29.7303 112.129 29.9315C111.787 30.1266 111.391 30.2242 110.946 30.2242C110.427 30.2242 109.994 30.09 109.635 29.8156C109.275 29.5413 109.031 29.1876 108.903 28.7425V32.4132H108.519V25.401H108.903V26.8217C109.031 26.3766 109.275 26.0169 109.635 25.7486C109.994 25.4742 110.433 25.34 110.946 25.34C111.391 25.34 111.787 25.4376 112.129 25.6327M109.86 25.9376C109.562 26.1083 109.33 26.3522 109.159 26.6693C108.988 26.9864 108.903 27.3522 108.903 27.7669C108.903 28.1815 108.988 28.5474 109.159 28.8705C109.33 29.1876 109.562 29.4376 109.86 29.6083C110.159 29.7791 110.494 29.8705 110.866 29.8705C111.464 29.8705 111.94 29.6815 112.293 29.3095C112.647 28.9376 112.824 28.4254 112.824 27.773C112.824 27.1205 112.647 26.6205 112.293 26.2425C111.94 25.8705 111.464 25.6815 110.866 25.6815C110.494 25.6815 110.153 25.7669 109.86 25.9376Z" fill="#1F3755"/>
<path d="M117.775 25.7364C118.129 26.0108 118.373 26.3644 118.501 26.8095V25.3888H118.897V30.1571H118.501V28.7364C118.373 29.1815 118.129 29.5413 117.775 29.8095C117.415 30.0839 116.976 30.2181 116.458 30.2181C116.013 30.2181 115.616 30.1205 115.275 29.9254C114.934 29.7303 114.665 29.4437 114.47 29.0717C114.275 28.6998 114.177 28.2669 114.177 27.7669C114.177 27.2669 114.275 26.8339 114.47 26.4681C114.665 26.1022 114.934 25.8156 115.275 25.6205C115.616 25.4254 116.013 25.3278 116.458 25.3278C116.976 25.3278 117.415 25.462 117.775 25.7364ZM115.123 26.2425C114.769 26.6144 114.592 27.1266 114.592 27.773C114.592 28.4193 114.769 28.9376 115.116 29.3095C115.47 29.6876 115.946 29.8705 116.549 29.8705C116.921 29.8705 117.263 29.7852 117.562 29.6083C117.86 29.4376 118.092 29.1876 118.257 28.8705C118.421 28.5534 118.507 28.1815 118.507 27.7669C118.507 27.3522 118.421 26.9864 118.257 26.6693C118.092 26.3522 117.86 26.1083 117.562 25.9376C117.263 25.7669 116.927 25.6815 116.549 25.6815C115.952 25.6815 115.476 25.8705 115.123 26.2425Z" fill="#1F3755"/>
<path d="M121.36 25.59C121.671 25.3949 122.068 25.2974 122.543 25.2974V25.7303H122.409C121.927 25.7303 121.525 25.8644 121.196 26.1327C120.866 26.401 120.702 26.84 120.702 27.4437V30.1632H120.305V25.3949H120.702V26.4498C120.824 26.0778 121.043 25.7913 121.354 25.5961" fill="#1F3755"/>
<path d="M126.702 29.523C127.031 29.2791 127.226 28.9498 127.299 28.5291H127.714C127.629 29.0413 127.385 29.4498 127.001 29.7608C126.61 30.0717 126.116 30.2242 125.513 30.2242C125.062 30.2242 124.659 30.1266 124.318 29.9315C123.97 29.7364 123.696 29.4559 123.494 29.0839C123.293 28.7181 123.196 28.2791 123.196 27.773C123.196 27.2669 123.293 26.84 123.494 26.4742C123.696 26.1083 123.964 25.8217 124.318 25.6266C124.665 25.4315 125.068 25.3339 125.513 25.3339C125.958 25.3339 126.373 25.4315 126.708 25.6266C127.043 25.8217 127.299 26.0778 127.47 26.401C127.641 26.7181 127.732 27.0595 127.732 27.4254C127.732 27.5717 127.72 27.7242 127.69 27.8888H123.592C123.592 28.3339 123.69 28.7059 123.866 29.0108C124.043 29.3095 124.275 29.5352 124.562 29.6754C124.842 29.8217 125.159 29.8888 125.494 29.8888C125.976 29.8888 126.379 29.7669 126.708 29.523M124.562 25.8766C124.275 26.023 124.043 26.2486 123.86 26.5474C123.684 26.8461 123.592 27.212 123.586 27.651H127.342C127.366 27.212 127.293 26.84 127.123 26.5413C126.952 26.2425 126.726 26.0169 126.44 25.8766C126.153 25.7303 125.842 25.6632 125.513 25.6632C125.184 25.6632 124.848 25.7364 124.568 25.8827" fill="#1F3755"/>
<path d="M132.287 25.7364C132.647 26.0108 132.885 26.3644 133.019 26.8095V23.6571H133.415V30.151H133.019V28.7303C132.891 29.1754 132.647 29.5352 132.287 29.8035C131.933 30.0778 131.494 30.212 130.97 30.212C130.525 30.212 130.129 30.1144 129.787 29.9193C129.446 29.7242 129.177 29.4376 128.982 29.0656C128.787 28.6937 128.69 28.2608 128.69 27.7608C128.69 27.2608 128.787 26.8278 128.982 26.462C129.177 26.0961 129.446 25.8095 129.787 25.6144C130.129 25.4193 130.525 25.3217 130.97 25.3217C131.494 25.3217 131.933 25.4559 132.287 25.7303M129.629 26.2425C129.275 26.6144 129.098 27.1266 129.098 27.773C129.098 28.4193 129.275 28.9376 129.623 29.3095C129.976 29.6876 130.452 29.8705 131.055 29.8705C131.427 29.8705 131.769 29.7852 132.068 29.6083C132.366 29.4376 132.598 29.1876 132.763 28.8705C132.927 28.5534 133.013 28.1815 133.013 27.7669C133.013 27.3522 132.927 26.9864 132.763 26.6693C132.598 26.3522 132.36 26.1083 132.068 25.9376C131.769 25.7669 131.433 25.6815 131.055 25.6815C130.458 25.6815 129.982 25.8705 129.629 26.2425Z" fill="#1F3755"/>
</g>
<defs>
<linearGradient id="paint0_linear_4948_264965" x1="20.9023" y1="21.4625" x2="30.2438" y2="47.1271" gradientUnits="userSpaceOnUse">
<stop offset="0.42" stop-color="#567126"/>
<stop offset="0.71" stop-color="#729F25"/>
</linearGradient>
<linearGradient id="paint1_linear_4948_264965" x1="25.5976" y1="27.3654" x2="9.40247" y2="8.06665" gradientUnits="userSpaceOnUse">
<stop offset="0.23" stop-color="#567126"/>
<stop offset="0.75" stop-color="#729F25"/>
</linearGradient>
<linearGradient id="paint2_linear_4948_264965" x1="20.7867" y1="13.4637" x2="35.2196" y2="28.4149" gradientUnits="userSpaceOnUse">
<stop offset="0.17" stop-color="#DFE8D7"/>
<stop offset="0.2" stop-color="#C7DBB1"/>
<stop offset="0.25" stop-color="#AACB84"/>
<stop offset="0.3" stop-color="#94BF61"/>
<stop offset="0.34" stop-color="#84B748"/>
<stop offset="0.38" stop-color="#7AB139"/>
<stop offset="0.41" stop-color="#77B034"/>
</linearGradient>
<clipPath id="clip0_4948_264965">
<rect width="136" height="52" fill="white"/>
</clipPath>
</defs>
</svg>
